<svg width="1280" height="998" viewBox="0 0 1280 998" fill="none" xmlns="http://www.w3.org/2000/svg">
<rect x="-9" y="143" width="1330" height="697" fill="#BF0F0F"/>
<path d="M824.426 926C1090.43 955.6 1266.26 877.667 1320.93 835H-115.574C-132.574 857.667 -164.874 912.1 -158.074 948.5C-149.574 994 60.4264 1019.5 168.426 974C276.426 928.5 491.926 889 824.426 926Z" fill="#BF0F0F"/>
<path d="M337.5 71.9287C71.4998 42.3287 -104.333 120.262 -159 162.929H1277.5C1294.5 140.262 1326.8 85.8287 1320 49.4287C1311.5 3.92871 1101.5 -21.5713 993.5 23.9287C885.5 69.4287 670 108.929 337.5 71.9287Z" fill="#BF0F0F"/>
</svg>
