<svg width="1280" height="678" viewBox="0 0 1280 678" fill="none" xmlns="http://www.w3.org/2000/svg">
<rect x="-1" y="143" width="1281" height="420" fill="#1E1E1E"/>
<path d="M832.426 606C1098.43 635.6 1274.26 557.667 1328.93 515H-107.574C-124.574 537.667 -156.874 592.1 -150.074 628.5C-141.574 674 68.4264 699.5 176.426 654C284.426 608.5 499.926 569 832.426 606Z" fill="#1E1E1E"/>
<path d="M345.5 71.9287C79.4998 42.3287 -96.3335 120.262 -151 162.929H1285.5C1302.5 140.262 1334.8 85.8287 1328 49.4287C1319.5 3.92871 1109.5 -21.5713 1001.5 23.9287C893.5 69.4287 678 108.929 345.5 71.9287Z" fill="#1E1E1E"/>
</svg>
